<svg class="icon" xmlns="http://www.w3.org/2000/svg" width="16" height="16" viewBox="0 0 16 16" >
<path d="M9.99999 1.06667C9.48453 1.06667 9.06666 1.48454 9.06666 2.00001C9.06666 2.51547 9.48453 2.93334 9.99999 2.93334H11.4134L8.00669 6.34004C7.64221 6.70453 7.64221 7.29548 8.00669 7.65997C8.37118 8.02446 8.96214 8.02446 9.32663 7.65997L12.7333 4.25327V5.66667C12.7333 6.18214 13.1512 6.60001 13.6667 6.60001C14.1821 6.60001 14.6 6.18214 14.6 5.66667V2.00001C14.6 1.48454 14.1821 1.06667 13.6667 1.06667H9.99999Z"/>
<path d="M7.33333 4.26667H4.26666V11.7333H11.7333V8.66667C11.7333 8.15121 12.1512 7.73334 12.6667 7.73334C13.1821 7.73334 13.6 8.15121 13.6 8.66667V12C13.6 12.8837 12.8836 13.6 12 13.6H3.99999C3.11634 13.6 2.39999 12.8837 2.39999 12V4.00001C2.39999 3.11635 3.11634 2.40001 3.99999 2.40001H7.33333C7.84879 2.40001 8.26666 2.81787 8.26666 3.33334C8.26666 3.84881 7.84879 4.26667 7.33333 4.26667Z"/>
</svg>
