<svg class="icon" width="24" height="24" viewBox="0 0 24 24" xmlns="http://www.w3.org/2000/svg">
  <path fill-rule="evenodd" clip-rule="evenodd" d="M5.39503 3.3701C5.26241 3.3701 5.07924 3.5025 5.07924 3.76329V20.2367C5.07924 20.4975 5.26241 20.6299 5.39503 20.6299H18.6049C18.7386 20.6299 18.9207 20.4963 18.9207 20.2367V8.94586H14.1132C13.7365 8.94586 13.3249 8.66318 13.3249 8.19149V3.3701H5.39503ZM14.2961 4.05388L18.231 7.97466H14.2961V4.05388ZM4.10803 3.76329C4.10803 3.04871 4.647 2.3989 5.39503 2.3989H13.8105C13.939 2.3989 14.0622 2.44982 14.1533 2.54051L19.7491 8.11627C19.8405 8.20739 19.8919 8.33117 19.8919 8.46026V20.2367C19.8919 20.9428 19.3606 21.6011 18.6049 21.6011H5.39503C4.647 21.6011 4.10803 20.9513 4.10803 20.2367V3.76329ZM11.6566 10.1103C11.8462 9.92063 12.1537 9.92063 12.3433 10.1103L14.9784 12.7454C15.1681 12.935 15.1681 13.2425 14.9784 13.4321C14.7888 13.6218 14.4813 13.6218 14.2917 13.4321L12.4856 11.626L12.4856 17.7002C12.4856 17.9684 12.2682 18.1858 12 18.1858C11.7318 18.1858 11.5144 17.9684 11.5144 17.7002L11.5144 11.626L9.70824 13.4321C9.5186 13.6218 9.21113 13.6218 9.02149 13.4321C8.83185 13.2425 8.83185 12.935 9.02149 12.7454L11.6566 10.1103Z" />
</svg>
