<svg class="icon" width="24" height="24" viewBox="0 0 24 24" fill="none" xmlns="http://www.w3.org/2000/svg">
  <path fill-rule="evenodd" clip-rule="evenodd" d="M19.7991 4.20084C20.0669 4.46863 20.0669 4.9028 19.7991 5.17059L12.9697 12L19.7992 18.8294C20.0669 19.0972 20.0669 19.5314 19.7992 19.7992C19.5314 20.0669 19.0972 20.0669 18.8294 19.7992L12 12.9697L5.17059 19.7991C4.9028 20.0669 4.46863 20.0669 4.20084 19.7991C3.93305 19.5313 3.93305 19.0972 4.20084 18.8294L11.0302 12L4.20087 5.17061C3.93308 4.90283 3.93308 4.46865 4.20087 4.20087C4.46865 3.93308 4.90282 3.93308 5.17061 4.20087L12 11.0302L18.8294 4.20084C19.0972 3.93305 19.5313 3.93305 19.7991 4.20084Z" fill="#222E42"/>
</svg>
