<svg class="icon" width="24" height="24" viewBox="0 0 24 24" xmlns="http://www.w3.org/2000/svg">
  <path fill-rule="evenodd" clip-rule="evenodd" d="M12 3.35041C7.22299 3.35041 3.35044 7.22296 3.35044 12C3.35044 16.777 7.22299 20.6496 12 20.6496C16.7771 20.6496 20.6496 16.777 20.6496 12C20.6496 7.22296 16.7771 3.35041 12 3.35041ZM2.40002 12C2.40002 6.69806 6.69809 2.39999 12 2.39999C17.302 2.39999 21.6 6.69806 21.6 12C21.6 17.3019 17.302 21.6 12 21.6C6.69809 21.6 2.40002 17.3019 2.40002 12Z" />
  <path fill-rule="evenodd" clip-rule="evenodd" d="M10.7644 11.2396C10.7644 10.9771 10.9771 10.7644 11.2396 10.7644H12C12.2624 10.7644 12.4752 10.9771 12.4752 11.2396V16.0872H12.7604C13.0228 16.0872 13.2356 16.2999 13.2356 16.5624C13.2356 16.8248 13.0228 17.0376 12.7604 17.0376H12C11.7375 17.0376 11.5248 16.8248 11.5248 16.5624V11.7148H11.2396C10.9771 11.7148 10.7644 11.502 10.7644 11.2396Z" />
  <path d="M12 8.57854C12.4201 8.57854 12.7607 8.23794 12.7607 7.8178C12.7607 7.39765 12.4201 7.05706 12 7.05706C11.5798 7.05706 11.2392 7.39765 11.2392 7.8178C11.2392 8.23794 11.5798 8.57854 12 8.57854Z" />
</svg>
