<svg class="icon" width="24" height="24" viewBox="0 0 24 24" xmlns="http://www.w3.org/2000/svg">
  <path fill-rule="evenodd" clip-rule="evenodd" d="M8.88556 3.40365C7.86198 3.77149 6.93156 4.32391 6.11227 5.01105C6.05378 5.06031 6.02101 5.13069 6.02024 5.21314L6.05721 7.61642C6.05878 7.71872 6.02855 7.81898 5.97069 7.90336C5.76193 8.20781 5.58084 8.51861 5.42625 8.84496C5.38208 8.93822 5.3098 9.0153 5.21958 9.06538L3.12052 10.2305C3.04458 10.2746 3.00472 10.3377 2.99429 10.4003L2.9931 10.4075C2.80036 11.4675 2.80863 12.5568 2.99349 13.6044L2.99431 13.609C3.00474 13.6716 3.04457 13.7347 3.12049 13.7788L5.21958 14.9439C5.3098 14.994 5.38208 15.0711 5.42625 15.1643C5.58084 15.4907 5.76193 15.8015 5.97069 16.106C6.02855 16.1903 6.05878 16.2906 6.05721 16.3929L6.01996 18.8138C6.01723 18.8793 6.05088 18.9548 6.10181 18.9973L6.10377 18.9989C6.9374 19.7009 7.87605 20.2363 8.87634 20.5964C8.94381 20.6193 9.02498 20.6137 9.10248 20.5707L11.1621 19.333C11.2492 19.2807 11.3504 19.2565 11.4517 19.2637C11.8173 19.2899 12.1827 19.2899 12.5483 19.2637C12.6496 19.2565 12.7508 19.2807 12.8379 19.333L14.9032 20.5741C14.9081 20.5771 14.9131 20.5802 14.9179 20.5833C14.9603 20.6108 15.0291 20.6255 15.1144 20.5964C16.138 20.2286 17.0684 19.6762 17.8877 18.989C17.9462 18.9397 17.979 18.8694 17.9797 18.7869L17.9428 16.3836C17.9412 16.2813 17.9714 16.1811 18.0293 16.0967C18.238 15.7922 18.4191 15.4814 18.5737 15.1551C18.6179 15.0618 18.6902 14.9847 18.7804 14.9347L20.8795 13.7695C20.9554 13.7254 20.9953 13.6624 21.0057 13.5998L21.0069 13.5926C21.1996 12.5326 21.1913 11.4432 21.0065 10.3957L21.0057 10.391C20.9952 10.3284 20.9554 10.2654 20.8795 10.2212L18.7804 9.05612C18.6902 9.00604 18.6179 8.92896 18.5737 8.8357C18.4191 8.50935 18.238 8.19854 18.0293 7.8941C17.9714 7.80972 17.9412 7.70946 17.9428 7.60716L17.98 5.18623C17.9827 5.12071 17.9491 5.04523 17.8982 5.00279L17.8962 5.00115C17.0626 4.29916 16.124 3.76381 15.1237 3.40366C15.0562 3.38079 14.975 3.38634 14.8975 3.42938L12.8379 4.667C12.7508 4.71934 12.6496 4.74354 12.5483 4.7363C12.1827 4.71019 11.8173 4.71019 11.4517 4.7363C11.3504 4.74354 11.2492 4.71934 11.1621 4.667L9.09682 3.42597C9.09184 3.42298 9.08692 3.4199 9.08204 3.41673C9.03971 3.38922 8.97082 3.37454 8.88556 3.40365ZM9.6121 2.58309C9.28596 2.375 8.89624 2.354 8.55919 2.47123L8.55457 2.47287C7.41209 2.88299 6.38004 3.49713 5.47745 4.25414C5.1847 4.50066 5.03234 4.85521 5.03234 5.21606L5.06707 7.47693C4.89706 7.73502 4.74255 8.00049 4.60403 8.27719L2.63781 9.36857L2.63246 9.37159C2.32186 9.54908 2.08507 9.85436 2.02052 10.2339C1.80647 11.4134 1.8167 12.619 2.02029 13.774C2.0845 14.1542 2.32148 14.46 2.63246 14.6377L4.60403 15.7321C4.74255 16.0088 4.89706 16.2743 5.06707 16.5324L5.03249 18.7801C5.01922 19.1556 5.18796 19.5206 5.46744 19.7545C6.39263 20.5336 7.43486 21.1278 8.54504 21.5271L8.54993 21.5288C8.90705 21.653 9.28664 21.6033 9.5963 21.4263L11.5392 20.259C11.8464 20.2753 12.1536 20.2753 12.4608 20.259L14.3879 21.417C14.714 21.6251 15.1038 21.646 15.4408 21.5288L15.4454 21.5272C16.5879 21.1171 17.6199 20.5029 18.5225 19.7459C18.8153 19.4994 18.9676 19.1448 18.9676 18.784L18.9329 16.5231C19.1029 16.265 19.2574 15.9996 19.3959 15.7229L21.3622 14.6315L21.3675 14.6285C21.6781 14.451 21.9149 14.1458 21.9794 13.7663C22.1935 12.5867 22.1833 11.381 21.9797 10.226C21.9155 9.84583 21.6785 9.54003 21.3675 9.36232L19.3959 8.26793C19.2574 7.99123 19.1029 7.72575 18.9329 7.46766L18.9675 5.22002C18.9808 4.84445 18.812 4.47945 18.5325 4.24551C17.6074 3.4664 16.5651 2.87224 15.4549 2.47296L15.4501 2.47123C15.0929 2.34702 14.7133 2.39678 14.4037 2.57373L12.4608 3.74109C12.1536 3.72475 11.8464 3.72475 11.5392 3.74109L9.6121 2.58309Z"/>
  <path fill-rule="evenodd" clip-rule="evenodd" d="M11.9906 8.05315C9.80827 8.05315 8.03911 9.82231 8.03911 12.0047C8.03911 14.187 9.80827 15.9562 11.9906 15.9562C14.173 15.9562 15.9422 14.187 15.9422 12.0047C15.9422 9.82231 14.173 8.05315 11.9906 8.05315ZM7.05123 12.0047C7.05123 9.27672 9.26268 7.06527 11.9906 7.06527C14.7186 7.06527 16.93 9.27672 16.93 12.0047C16.93 14.7326 14.7186 16.9441 11.9906 16.9441C9.26268 16.9441 7.05123 14.7326 7.05123 12.0047Z" />
</svg>
