<svg class="icon" width="20" height="20" viewBox="0 0 20 20" fill="none" xmlns="http://www.w3.org/2000/svg">
  <path d="M11.7727 8.50053V11.1824C11.7727 11.5005 11.5 11.7278 11.2273 11.7278H8.54545C8.22727 11.7278 8 11.4551 8 11.1824V8.50053C8 8.18235 8.27273 7.95508 8.54545 7.95508H11.2273C11.5455 7.95508 11.7727 8.18235 11.7727 8.50053Z" fill="white"/>
  <path d="M14.5 5.22781C13.7273 4.45508 11.9091 3.95508 9.86368 3.95508C7.81823 3.95508 6.00004 4.45508 5.22732 5.22781C4.45459 6.00053 3.95459 7.81872 3.95459 9.86417C3.95459 11.9096 4.45459 13.7278 5.22732 14.5005C6.00004 15.2733 7.81823 15.7733 9.86368 15.7733C11.9091 15.7733 13.7273 15.2733 14.5 14.5005C14.8637 14.1369 15.1819 13.4551 15.4091 12.6824C15.6364 11.8642 15.7728 10.9096 15.7728 9.90962C15.7273 7.81871 15.2728 6.00053 14.5 5.22781ZM12.6819 12.6824C12.5 12.8642 12.0455 13.3187 9.81823 13.3187C7.59095 13.3187 7.13641 12.8187 6.95459 12.6824C6.81823 12.5005 6.36368 12.046 6.36368 9.81872C6.36368 7.59144 6.86368 7.1369 7.00004 6.95508C7.13641 6.77326 7.63641 6.31871 9.86368 6.31871C12.091 6.31871 12.5455 6.81871 12.7273 6.95508C12.8637 7.1369 13.3637 7.59144 13.3637 9.81872C13.3637 12.046 12.8637 12.5005 12.6819 12.6824Z" fill="white"/>
  <path d="M11.7727 8.50053V11.1824C11.7727 11.5005 11.5 11.7278 11.2273 11.7278H8.54545C8.22727 11.7278 8 11.4551 8 11.1824V8.50053C8 8.18235 8.27273 7.95508 8.54545 7.95508H11.2273C11.5455 7.95508 11.7727 8.18235 11.7727 8.50053Z" fill="white"/>
  <path d="M11.7727 8.50053V11.1824C11.7727 11.5005 11.5 11.7278 11.2273 11.7278H8.54545C8.22727 11.7278 8 11.4551 8 11.1824V8.50053C8 8.18235 8.27273 7.95508 8.54545 7.95508H11.2273C11.5455 7.95508 11.7727 8.18235 11.7727 8.50053Z" fill="white"/>
  <path d="M11.7727 8.50053V11.1824C11.7727 11.5005 11.5 11.7278 11.2273 11.7278H8.54545C8.22727 11.7278 8 11.4551 8 11.1824V8.50053C8 8.18235 8.27273 7.95508 8.54545 7.95508H11.2273C11.5455 7.95508 11.7727 8.18235 11.7727 8.50053Z" fill="white"/>
  <path d="M14.5 5.22781C13.7273 4.45508 11.9091 3.95508 9.86368 3.95508C7.81823 3.95508 6.00004 4.45508 5.22732 5.22781C4.45459 6.00053 3.95459 7.81872 3.95459 9.86417C3.95459 11.9096 4.45459 13.7278 5.22732 14.5005C6.00004 15.2733 7.81823 15.7733 9.86368 15.7733C11.9091 15.7733 13.7273 15.2733 14.5 14.5005C14.8637 14.1369 15.1819 13.4551 15.4091 12.6824C15.6364 11.8642 15.7728 10.9096 15.7728 9.90962C15.7273 7.81871 15.2728 6.00053 14.5 5.22781ZM12.6819 12.6824C12.5 12.8642 12.0455 13.3187 9.81823 13.3187C7.59095 13.3187 7.13641 12.8187 6.95459 12.6824C6.81823 12.5005 6.36368 12.046 6.36368 9.81872C6.36368 7.59144 6.86368 7.1369 7.00004 6.95508C7.13641 6.77326 7.63641 6.31871 9.86368 6.31871C12.091 6.31871 12.5455 6.81871 12.7273 6.95508C12.8637 7.1369 13.3637 7.59144 13.3637 9.81872C13.3637 12.046 12.8637 12.5005 12.6819 12.6824Z" fill="white"/>
  <path d="M9.86364 0C4.40909 0 0 4.40909 0 9.86364C0 15.2727 4.36364 19.6364 9.72727 19.7273C15.2273 19.8182 19.8182 15.2273 19.7273 9.72727C19.6364 4.36364 15.2727 0 9.86364 0ZM15.5 15.5455C14.4091 16.6364 12.3182 17.2727 9.86364 17.2727C7.40909 17.2727 5.27273 16.6364 4.22727 15.5455C3.13636 14.4545 2.5 12.3636 2.5 9.90909C2.5 7.45455 3.13636 5.36364 4.22727 4.27273C5.31818 3.18182 7.40909 2.54545 9.86364 2.54545C12.3182 2.54545 14.4091 3.18182 15.5 4.27273C16.5909 5.36364 17.2273 7.45455 17.2273 9.90909C17.2273 12.3636 16.5909 14.4545 15.5 15.5455Z" fill="white"/>
</svg>
