<svg class="logo" width="128" height="40" viewBox="0 0 128 40" fill="none" xmlns="http://www.w3.org/2000/svg">
  <path d="M62.4545 13.6364C60.8181 13.6364 59.4545 14.1818 58.4545 15.2727L57.9091 13.9091H54.5454V26H58.8181V19.5455C58.8181 18.0909 59.7272 17.1818 61.0909 17.1818C62.1818 17.1818 63 18 63 19.0909V26H67.2727V18.3636C67.2727 17 66.8181 15.8182 65.9091 15C65.0909 14.0909 63.9091 13.6364 62.4545 13.6364ZM47.9091 8.36364H52.1818V12.6364H47.9091V8.36364ZM47.9091 14H52.1818V26.0909H47.9091V14ZM125.727 15.4546C124.636 14.2727 123.364 13.6364 121.727 13.6364C120.273 13.6364 119.091 14.0909 118.091 15.0909L117.545 14H114.091V31.1818H118.364V25.2727C119.364 26 120.364 26.4546 121.636 26.4546C123.273 26.4546 124.636 25.8182 125.636 24.7273C126.727 23.5455 127.182 22 127.182 20.1818C127.273 18.1818 126.727 16.6364 125.727 15.4546ZM120.545 23C119.273 23 118.364 22 118.364 20.6364V19.3636C118.364 18 119.273 17 120.545 17C121.909 17 122.909 18.1818 122.909 20C122.909 21.7273 121.909 23 120.545 23ZM109.636 8.27274C108.273 8.27274 107.182 9.27274 107.182 10.7273C107.182 12.0909 108.273 13.1818 109.636 13.1818C111.091 13.1818 112.091 12.0909 112.091 10.7273C112.091 9.36364 111.091 8.27274 109.636 8.27274ZM107.455 14H111.727V26.0909H107.455V14ZM89.5454 15.4546C88.2727 14.2727 86.6363 13.6364 84.5454 13.6364C82.5454 13.6364 80.9091 14.1818 79.5454 15.4546C78.2727 16.6364 77.6363 18.1818 77.6363 20C77.6363 21.8182 78.2727 23.3636 79.5454 24.5455C80.9091 25.7273 82.5454 26.3636 84.5454 26.3636C86.5454 26.3636 88.2727 25.7273 89.5454 24.6364C90.8181 23.4546 91.4545 21.9091 91.4545 20.0909C91.4545 18.1818 90.8181 16.6364 89.5454 15.4546ZM84.5454 23C83.0909 23 82.0909 21.7273 82.0909 20C82.0909 18.1818 83.0909 17 84.5454 17C86 17 87.0909 18.2727 87.0909 20C87.0909 21.8182 86 23 84.5454 23ZM75.9091 12C76.2727 12 76.7272 12.0909 77.3636 12.1818L77.9091 9.00001C76.9091 8.72728 75.9091 8.63637 74.9091 8.63637C73.5454 8.63637 72.4545 9.00001 71.6363 9.81819C70.8182 10.6364 70.3636 11.6364 70.3636 12.9091V14H68.3636V17.2727H70.3636V26.0909H74.6363V17.2727H77.0909V14H74.6363V13.2727C74.6363 12.4546 75.0909 12 75.9091 12ZM104.273 15.4546C103.182 14.2727 101.909 13.6364 100.273 13.6364C99 13.6364 97.9091 14 97 14.8182V8.81819H92.7272V26H96.1818L96.7272 24.9091C97.6363 25.8182 98.8182 26.3636 100.273 26.3636C101.909 26.3636 103.273 25.7273 104.273 24.6364C105.364 23.4546 105.909 21.9091 105.909 20.0909C105.909 18.1818 105.364 16.6364 104.273 15.4546ZM99.1818 23C97.9091 23 97 22 97 20.6364V19.3636C97 18 97.9091 17 99.1818 17C100.545 17 101.545 18.1818 101.545 20C101.545 21.7273 100.545 23 99.1818 23Z" fill="#373A3B"/>
  <path d="M23.5455 17V22.3636C23.5455 23 23 23.4545 22.4545 23.4545H17.0909C16.4545 23.4545 16 22.9091 16 22.3636V17C16 16.3636 16.5455 15.9091 17.0909 15.9091H22.4545C23.0909 15.9091 23.5455 16.3636 23.5455 17Z" fill="#F15C22"/>
  <path d="M29 10.4545C27.4545 8.90909 23.8181 7.90909 19.7272 7.90909C15.6363 7.90909 12 8.90909 10.4545 10.4545C8.90906 12 7.90906 15.6364 7.90906 19.7273C7.90906 23.8182 8.90906 27.4545 10.4545 29C12 30.5455 15.6363 31.5455 19.7272 31.5455C23.8181 31.5455 27.4545 30.5455 29 29C29.7272 28.2727 30.3636 26.9091 30.8181 25.3636C31.2727 23.7273 31.5454 21.8182 31.5454 19.8182C31.4545 15.6364 30.5454 12 29 10.4545ZM25.3636 25.3636C25 25.7273 24.0909 26.6364 19.6363 26.6364C15.1818 26.6364 14.2727 25.6364 13.9091 25.3636C13.6363 25 12.7272 24.0909 12.7272 19.6364C12.7272 15.1818 13.7272 14.2727 14 13.9091C14.2727 13.5455 15.2727 12.6364 19.7272 12.6364C24.1818 12.6364 25.0909 13.6364 25.4545 13.9091C25.7272 14.2727 26.7272 15.1818 26.7272 19.6364C26.7272 24.0909 25.7272 25 25.3636 25.3636Z" fill="#F15C22"/>
  <path d="M23.5455 17V22.3636C23.5455 23 23 23.4545 22.4545 23.4545H17.0909C16.4545 23.4545 16 22.9091 16 22.3636V17C16 16.3636 16.5455 15.9091 17.0909 15.9091H22.4545C23.0909 15.9091 23.5455 16.3636 23.5455 17Z" fill="#F15C22"/>
  <path d="M23.5455 17V22.3636C23.5455 23 23 23.4545 22.4545 23.4545H17.0909C16.4545 23.4545 16 22.9091 16 22.3636V17C16 16.3636 16.5455 15.9091 17.0909 15.9091H22.4545C23.0909 15.9091 23.5455 16.3636 23.5455 17Z" fill="#FF5A00"/>
  <path d="M23.5455 17V22.3636C23.5455 23 23 23.4545 22.4545 23.4545H17.0909C16.4545 23.4545 16 22.9091 16 22.3636V17C16 16.3636 16.5455 15.9091 17.0909 15.9091H22.4545C23.0909 15.9091 23.5455 16.3636 23.5455 17Z" fill="#FF5A00"/>
  <path d="M29 10.4545C27.4545 8.90909 23.8181 7.90909 19.7272 7.90909C15.6363 7.90909 12 8.90909 10.4545 10.4545C8.90906 12 7.90906 15.6364 7.90906 19.7273C7.90906 23.8182 8.90906 27.4545 10.4545 29C12 30.5455 15.6363 31.5455 19.7272 31.5455C23.8181 31.5455 27.4545 30.5455 29 29C29.7272 28.2727 30.3636 26.9091 30.8181 25.3636C31.2727 23.7273 31.5454 21.8182 31.5454 19.8182C31.4545 15.6364 30.5454 12 29 10.4545ZM25.3636 25.3636C25 25.7273 24.0909 26.6364 19.6363 26.6364C15.1818 26.6364 14.2727 25.6364 13.9091 25.3636C13.6363 25 12.7272 24.0909 12.7272 19.6364C12.7272 15.1818 13.7272 14.2727 14 13.9091C14.2727 13.5455 15.2727 12.6364 19.7272 12.6364C24.1818 12.6364 25.0909 13.6364 25.4545 13.9091C25.7272 14.2727 26.7272 15.1818 26.7272 19.6364C26.7272 24.0909 25.7272 25 25.3636 25.3636Z" fill="#FF5A00"/>
  <path d="M19.7273 0C8.81818 0 0 8.81818 0 19.7273C0 30.5455 8.72727 39.2727 19.4545 39.4545C30.4545 39.6364 39.6364 30.4545 39.4545 19.4545C39.2727 8.72727 30.5455 0 19.7273 0ZM31 31.0909C28.8182 33.2727 24.6364 34.5455 19.7273 34.5455C14.8182 34.5455 10.5455 33.2727 8.45455 31.0909C6.27273 28.9091 5 24.7273 5 19.8182C5 14.9091 6.27273 10.7273 8.45455 8.54545C10.6364 6.36364 14.8182 5.09091 19.7273 5.09091C24.6364 5.09091 28.8182 6.36364 31 8.54545C33.1818 10.7273 34.4545 14.9091 34.4545 19.8182C34.4545 24.7273 33.1818 28.9091 31 31.0909Z" fill="#FF5A00"/>
</svg>
