<svg width="41" height="41" viewBox="0 0 41 41" fill="none" xmlns="http://www.w3.org/2000/svg">
  <path fill-rule="evenodd" clip-rule="evenodd" d="M4.01944 7.29995L15.1516 16.4517C15.9587 17.1436 17.0751 17.1437 17.8823 16.4519L17.8993 16.4372L29.1606 7.29995H4.01944ZM30.0261 8.74399V14.5836C30.0261 15.0438 30.3992 15.4169 30.8595 15.4169C31.3197 15.4169 31.6928 15.0438 31.6928 14.5836V7.6367C31.6928 7.30722 31.6128 6.99394 31.4701 6.71764C31.1381 6.07466 30.466 5.63329 29.6894 5.63329H3.50422C2.72767 5.63329 2.05556 6.07466 1.72354 6.71764C1.58086 6.99394 1.50082 7.30722 1.50082 7.6367V25.6749C1.50082 26.7819 2.39716 27.6783 3.50422 27.6783H18.5469C19.0071 27.6783 19.3802 27.3052 19.3802 26.845C19.3802 26.3847 19.0071 26.0116 18.5469 26.0116H3.50422C3.31765 26.0116 3.16748 25.8615 3.16748 25.6749V8.75713L14.0737 17.7232C15.5016 18.9415 17.5294 18.9421 18.9579 17.725L30.0261 8.74399Z" fill="#222E42"/>
  <path fill-rule="evenodd" clip-rule="evenodd" d="M21.8864 26.8937C21.8864 21.9348 25.9006 17.9207 30.8595 17.9207C35.8184 17.9207 39.8325 21.9348 39.8325 26.8937C39.8325 31.8531 35.8106 35.8668 30.8595 35.8668C25.9006 35.8668 21.8864 31.8526 21.8864 26.8937ZM30.8595 19.5873C26.8211 19.5873 23.5531 22.8553 23.5531 26.8937C23.5531 30.9321 26.8211 34.2001 30.8595 34.2001C34.8911 34.2001 38.1658 30.9317 38.1658 26.8937C38.1658 22.8553 34.8979 19.5873 30.8595 19.5873ZM35.0017 24.0144C35.3236 24.3434 35.3178 24.871 34.9888 25.1928L30.294 29.786C29.9675 30.1053 29.4449 30.1025 29.1219 29.7795L26.8254 27.483C26.4999 27.1575 26.4999 26.6299 26.8254 26.3045C27.1508 25.979 27.6784 25.979 28.0039 26.3045L29.7176 28.0182L33.8233 24.0015C34.1522 23.6796 34.6799 23.6854 35.0017 24.0144Z" fill="#FC6423"/>
</svg>
