<svg width="40" height="40" viewBox="0 0 40 40" fill="none" xmlns="http://www.w3.org/2000/svg">
<path d="M29.1788 29.138C29.132 29.5691 29.4993 29.9221 29.9329 29.9221C30.3665 29.9221 30.6741 29.5584 30.8056 29.1452C30.8106 29.1293 30.816 29.1134 30.8216 29.0976C30.8907 28.9126 30.9942 28.7496 31.1323 28.6088C31.2732 28.4679 31.4527 28.3326 31.6709 28.2028C31.9306 28.0481 32.1557 27.8755 32.3462 27.6849C32.5368 27.4916 32.6846 27.2706 32.7895 27.022C32.8973 26.7707 32.9511 26.4834 32.9511 26.1603C32.9511 25.6769 32.831 25.264 32.5907 24.9215C32.3504 24.579 32.0189 24.318 31.5964 24.1385C31.1738 23.9562 30.6877 23.8651 30.138 23.8651C29.6381 23.8651 29.181 23.9548 28.7667 24.1343C28.3524 24.3111 28.0196 24.5804 27.7682 24.9422C27.6613 25.095 27.5758 25.2653 27.5119 25.4531C27.358 25.9052 27.7641 26.3094 28.2417 26.3094H28.4618C28.7961 26.3094 29.0399 26.0192 29.2266 25.7418C29.3288 25.5872 29.46 25.4711 29.6201 25.3938C29.7803 25.3137 29.9502 25.2737 30.1297 25.2737C30.3148 25.2737 30.4833 25.3123 30.6352 25.3897C30.7899 25.467 30.9128 25.5775 31.0039 25.7211C31.0951 25.8647 31.1406 26.0318 31.1406 26.2224C31.1406 26.4019 31.1006 26.5649 31.0205 26.7113C30.9404 26.8549 30.8327 26.9861 30.6973 27.1049C30.562 27.2236 30.4087 27.3383 30.2375 27.4487C30.0082 27.5924 29.8121 27.7526 29.6491 27.9293C29.4862 28.1061 29.3619 28.3381 29.2763 28.6253C29.2279 28.793 29.1977 28.9647 29.1788 29.138Z" fill="#FC6423"/>
<path d="M29.2597 32.2836C29.4558 32.4769 29.692 32.5736 29.9682 32.5736C30.1449 32.5736 30.3079 32.5294 30.457 32.441C30.6062 32.3499 30.7263 32.2298 30.8175 32.0806C30.9114 31.9287 30.9597 31.7616 30.9625 31.5793C30.9597 31.3086 30.8589 31.0766 30.66 30.8833C30.4612 30.6899 30.2305 30.5933 29.9682 30.5933C29.692 30.5933 29.4558 30.6899 29.2597 30.8833C29.0664 31.0766 28.9711 31.3086 28.9738 31.5793C28.9711 31.8527 29.0664 32.0875 29.2597 32.2836Z" fill="#FC6423"/>
<path fill-rule="evenodd" clip-rule="evenodd" d="M30 19.1667C25.2246 19.1667 21.3589 23.0324 21.3589 27.8078C21.3589 32.5833 25.2246 36.449 30 36.449C34.768 36.449 38.6411 32.5837 38.6411 27.8078C38.6411 23.0324 34.7755 19.1667 30 19.1667ZM23.0255 27.8078C23.0255 23.9528 26.145 20.8333 30 20.8333C33.855 20.8333 36.9745 23.9528 36.9745 27.8078C36.9745 31.6623 33.8485 34.7823 30 34.7823C26.1451 34.7823 23.0255 31.6628 23.0255 27.8078Z" fill="#FC6423"/>
<path d="M25.1123 3.53054C22.2617 1.96188 18.9704 1.3858 15.7564 1.893C12.5425 2.4002 9.58858 3.96187 7.35963 6.33216C5.13067 8.70244 3.75332 11.7467 3.4444 14.9857C3.14816 18.0918 3.85063 21.2078 5.44391 23.8825L3.42297 29.9453C3.32316 30.2448 3.40109 30.5749 3.62429 30.7981C3.84748 31.0213 4.17762 31.0992 4.47706 30.9994L10.5394 28.9786C12.7096 30.2739 15.683 30.9807 18.2956 31.0383C18.7447 31.0482 19.1016 30.6781 19.1016 30.2289C19.1016 29.7581 18.7111 29.3831 18.2405 29.3698C15.8185 29.3009 13.0607 28.6113 11.0915 27.3615C10.8799 27.2272 10.6191 27.1952 10.3814 27.2745L5.53116 28.8912L7.1479 24.041C7.22705 23.8036 7.19528 23.5431 7.06137 23.3316C5.51849 20.8952 4.82974 18.0148 5.10354 15.1439C5.37735 12.2731 6.59816 9.5748 8.57378 7.47391C10.5494 5.37303 13.1676 3.98885 16.0163 3.53929C18.8649 3.08974 21.7821 3.60034 24.3087 4.99072C26.8353 6.38109 28.8278 8.57227 29.9724 11.2193C30.5729 12.6081 30.9222 14.3746 31.0149 15.9542C31.0418 16.4137 31.413 16.787 31.8733 16.787C32.3335 16.787 32.7084 16.4138 32.6841 15.9542C32.589 14.1566 32.1929 12.1553 31.5021 10.5578C30.2108 7.57135 27.9628 5.0992 25.1123 3.53054Z" fill="#222E42"/>
<path d="M12.8288 17.8333C13.6112 17.8333 14.2455 17.1991 14.2455 16.4167C14.2455 15.6343 13.6112 15 12.8288 15C12.0464 15 11.4121 15.6343 11.4121 16.4167C11.4121 17.1991 12.0464 17.8333 12.8288 17.8333Z" fill="#222E42"/>
<path d="M17.8288 17.8333C18.6112 17.8333 19.2455 17.1991 19.2455 16.4167C19.2455 15.6343 18.6112 15 17.8288 15C17.0464 15 16.4121 15.6343 16.4121 16.4167C16.4121 17.1991 17.0464 17.8333 17.8288 17.8333Z" fill="#222E42"/>
<path d="M24.2455 16.4167C24.2455 17.1991 23.6112 17.8333 22.8288 17.8333C22.0464 17.8333 21.4121 17.1991 21.4121 16.4167C21.4121 15.6343 22.0464 15 22.8288 15C23.6112 15 24.2455 15.6343 24.2455 16.4167Z" fill="#222E42"/>
</svg>
