<svg width="41" height="41" viewBox="0 0 41 41" fill="none" xmlns="http://www.w3.org/2000/svg" >
  <path fill-rule="evenodd" clip-rule="evenodd" d="M19.436 30.3398C19.436 25.9326 23.0037 22.3649 27.4109 22.3649C31.8181 22.3649 35.3857 25.9326 35.3857 30.3398C35.3857 34.7474 31.8112 38.3146 27.4109 38.3146C23.0037 38.3146 19.436 34.747 19.436 30.3398ZM27.4109 24.0316C23.9242 24.0316 21.1027 26.853 21.1027 30.3398C21.1027 33.8265 23.9242 36.648 27.4109 36.648C30.8917 36.648 33.719 33.826 33.719 30.3398C33.719 26.853 30.8976 24.0316 27.4109 24.0316Z" fill="#FC6423"/>
  <path fill-rule="evenodd" clip-rule="evenodd" d="M19.436 30.3398C19.436 25.9326 23.0037 22.3649 27.4109 22.3649C31.8181 22.3649 35.3857 25.9326 35.3857 30.3398C35.3857 34.7474 31.8112 38.3146 27.4109 38.3146C23.0037 38.3146 19.436 34.747 19.436 30.3398ZM27.4109 24.0316C23.9242 24.0316 21.1027 26.853 21.1027 30.3398C21.1027 33.8265 23.9242 36.648 27.4109 36.648C30.8917 36.648 33.719 33.826 33.719 30.3398C33.719 26.853 30.8976 24.0316 27.4109 24.0316ZM27.7979 27.3934C28.1234 27.068 28.651 27.068 28.9764 27.3934L31.3335 29.7505C31.6589 30.076 31.6589 30.6036 31.3334 30.929L28.9764 33.2861C28.651 33.6115 28.1233 33.6115 27.7979 33.286C27.4725 32.9606 27.4725 32.433 27.7979 32.1075L28.7323 31.1731H24.0775C23.6173 31.1731 23.2442 30.8 23.2442 30.3398C23.2442 29.8795 23.6173 29.5064 24.0775 29.5064H28.7324L27.7979 28.5719C27.4725 28.2465 27.4725 27.7189 27.7979 27.3934Z" fill="#FC6423"/>
  <path fill-rule="evenodd" clip-rule="evenodd" d="M7.28659 4.85211C7.17055 4.85211 6.9477 4.98022 6.9477 5.30419V29.4C6.9477 29.724 7.17055 29.8521 7.28659 29.8521H16.1025C16.5627 29.8521 16.9358 30.2252 16.9358 30.6854C16.9358 31.1457 16.5627 31.5188 16.1025 31.5188H7.28659C6.11447 31.5188 5.28104 30.5027 5.28104 29.4V5.30419C5.28104 4.20148 6.11447 3.18544 7.28659 3.18544H19.596C19.8165 3.18544 20.028 3.27283 20.1842 3.42846L28.3692 11.5842C28.5262 11.7406 28.6144 11.953 28.6144 12.1745V19.0299C28.6144 19.4901 28.2413 19.8632 27.781 19.8632C27.3208 19.8632 26.9477 19.4901 26.9477 19.0299V13.0078H20.0388C19.4344 13.0078 18.7627 12.553 18.7627 11.7814V4.85211H7.28659ZM20.4293 6.02552L25.7641 11.3412H20.4293V6.02552Z" fill="#222E42"/>
</svg>
