<svg width="40" height="41" viewBox="0 0 40 41" fill="none" xmlns="http://www.w3.org/2000/svg">
  <path fill-rule="evenodd" clip-rule="evenodd" d="M5.63921 6.40531C5.39933 6.40531 5.20378 6.59986 5.20378 6.84073V33.7777C5.20378 34.1715 5.67252 34.3644 5.94925 34.0877L11.2265 28.8105C11.6235 28.4134 12.1647 28.1969 12.715 28.1969H15.8497C16.3099 28.1969 16.683 28.57 16.683 29.0302C16.683 29.4905 16.3099 29.8636 15.8497 29.8636H12.715C12.5961 29.8636 12.482 29.9119 12.405 29.989L7.12776 35.2662C5.8011 36.5929 3.53711 35.6564 3.53711 33.7777V6.84073C3.53711 5.67341 4.48484 4.73864 5.63921 4.73864H26.553C27.7203 4.73864 28.6551 5.68634 28.6551 6.84073V16.1416C28.6551 16.6019 28.282 16.975 27.8218 16.975C27.3615 16.975 26.9884 16.6019 26.9884 16.1416V6.84073C26.9884 6.60087 26.7939 6.40531 26.553 6.40531H5.63921ZM11.3519 13.3937C11.3519 12.9335 11.725 12.5604 12.1852 12.5604H20.007C20.4672 12.5604 20.8403 12.9335 20.8403 13.3937C20.8403 13.8539 20.4672 14.227 20.007 14.227H12.1852C11.725 14.227 11.3519 13.8539 11.3519 13.3937ZM11.3519 17.3046C11.3519 16.8444 11.725 16.4713 12.1852 16.4713H18.048C18.5083 16.4713 18.8814 16.8444 18.8814 17.3046C18.8814 17.7648 18.5083 18.1379 18.048 18.1379H12.1852C11.725 18.1379 11.3519 17.7648 11.3519 17.3046Z" fill="#222E42"/>
  <path fill-rule="evenodd" clip-rule="evenodd" d="M19.1806 28.1203C19.1806 23.3448 23.0463 19.4791 27.8218 19.4791C32.5972 19.4791 36.4629 23.3448 36.4629 28.1203C36.4629 32.8962 32.5898 36.7614 27.8218 36.7614C23.0463 36.7614 19.1806 32.8957 19.1806 28.1203ZM27.8218 21.1458C23.9668 21.1458 20.8473 24.2653 20.8473 28.1203C20.8473 31.9752 23.9668 35.0948 27.8218 35.0948C31.6703 35.0948 34.7962 31.9748 34.7962 28.1203C34.7962 24.2653 31.6767 21.1458 27.8218 21.1458ZM31.8194 25.3346C32.1412 25.6636 32.1355 26.1912 31.8065 26.513L27.3031 30.9189C26.9766 31.2382 26.454 31.2354 26.1311 30.9124L23.9281 28.7095C23.6027 28.3841 23.6027 27.8565 23.9281 27.531C24.2536 27.2056 24.7812 27.2056 25.1066 27.531L26.7267 29.1511L30.6409 25.3217C30.9699 24.9998 31.4975 25.0056 31.8194 25.3346Z" fill="#FC6423"/>
</svg>
